<?xml version="1.0" encoding="UTF-8" standalone="no"?>
<!-- Created with Inkscape (http://www.inkscape.org/) -->

<svg
   xmlns:dc="http://purl.org/dc/elements/1.1/"
   xmlns:cc="http://creativecommons.org/ns#"
   xmlns:rdf="http://www.w3.org/1999/02/22-rdf-syntax-ns#"
   xmlns:svg="http://www.w3.org/2000/svg"
   xmlns="http://www.w3.org/2000/svg"
   xmlns:xlink="http://www.w3.org/1999/xlink"
   xmlns:sodipodi="http://sodipodi.sourceforge.net/DTD/sodipodi-0.dtd"
   xmlns:inkscape="http://www.inkscape.org/namespaces/inkscape"
   width="214.96919"
   height="90"
   id="svg2812"
   sodipodi:version="0.32"
   inkscape:version="0.48.4 r9939"
   version="1.0"
   sodipodi:docname="redhat-training-logo.svg"
   inkscape:output_extension="org.inkscape.output.svg.inkscape">
  <defs
     id="defs3">
    <inkscape:perspective
       sodipodi:type="inkscape:persp3d"
       inkscape:vp_x="0 : 70 : 1"
       inkscape:vp_y="0 : 1000 : 0"
       inkscape:vp_z="300 : 70 : 1"
       inkscape:persp3d-origin="150 : 46.666667 : 1"
       id="perspective2888" />
  </defs>
  <sodipodi:namedview
     inkscape:document-units="mm"
     id="base"
     pagecolor="#ffffff"
     bordercolor="#666666"
     borderopacity="1.0"
     inkscape:pageopacity="0.0"
     inkscape:pageshadow="2"
     inkscape:zoom="3.22"
     inkscape:cx="150"
     inkscape:cy="20.346384"
     inkscape:current-layer="layer2"
     inkscape:window-width="1164"
     inkscape:window-height="731"
     inkscape:window-x="2404"
     inkscape:window-y="226"
     width="300px"
     height="140px"
     showgrid="false"
     inkscape:window-maximized="0"
     showguides="true"
     inkscape:guide-bbox="true"
     units="mm"
     fit-margin-top="0"
     fit-margin-left="0"
     fit-margin-right="0"
     fit-margin-bottom="0">
    <sodipodi:guide
       orientation="0,1"
       position="439,191.97864"
       id="guide2999" />
    <sodipodi:guide
       orientation="0,1"
       position="83,-194.02136"
       id="guide3001" />
  </sodipodi:namedview>
  <metadata
     id="metadata4">
    <rdf:RDF>
      <cc:Work
         rdf:about="">
        <dc:format>image/svg+xml</dc:format>
        <dc:type
           rdf:resource="http://purl.org/dc/dcmitype/StillImage" />
        <dc:title />
      </cc:Work>
    </rdf:RDF>
  </metadata>
  <g
     inkscape:label="Layer 1"
     inkscape:groupmode="layer"
     id="layer1"
     transform="translate(-13.714282,-253.55108)" />
  <g
     inkscape:groupmode="layer"
     id="layer2"
     inkscape:label="Layer"
     transform="translate(0,-0.97868307)">
    <g
       id="g3006"
       transform="matrix(0.66423398,0,0,0.66423398,0,-4.3898464)">
      <path
         d="m 108.87136,322.8445 c 0,26.20564 -21.243872,47.44951 -47.449513,47.44951 -26.205641,0 -47.449509,-21.24387 -47.449509,-47.44951 0,-26.20564 21.243868,-47.44951 47.449509,-47.44951 26.205641,0 47.449513,21.24387 47.449513,47.44951 z"
         style="fill:#ffffff"
         id="path4548"
         inkscape:connector-curvature="0"
         transform="translate(-13.714282,-252.57246)" />
      <g
         transform="translate(-13.714282,-276.57246)"
         id="g3011">
        <path
           inkscape:connector-curvature="0"
           id="path620"
           d="m 280.67809,340.42714 c 0,2.54823 0.0999,5.18538 0.46962,7.65024 l -2.93448,0 -0.46685,-4.6157 -0.15283,0 c -1.56174,2.48431 -5.14925,5.34933 -10.26519,5.34933 -6.47753,0 -9.49264,-4.55736 -9.49264,-8.8535 0,-7.42793 6.55815,-11.90748 19.65778,-11.77131 l 0,-0.85868 c 0,-3.18459 -0.62245,-9.5371 -8.23381,-9.48985 -2.81777,0 -5.75228,0.75585 -8.08374,2.40094 l -1.01431,-2.3148 c 2.94287,-1.99523 6.53316,-2.78165 9.44544,-2.78165 9.28977,0 11.06826,6.97498 11.06826,12.73002 l 0,12.55496 0.002,0 z m -3.18461,-9.55933 c -7.0111,-0.20286 -16.26754,0.85867 -16.26754,8.5895 0,4.62683 3.05399,6.70543 6.40808,6.70543 5.36603,0 8.41725,-3.32075 9.526,-6.45533 0.23343,-0.68916 0.33625,-1.37832 0.33625,-1.92854 l 0,-6.91106 -0.002,0 z m 15.86461,-22.0865 0,7.09447 9.17583,0 0,2.58435 -9.17583,0 0,20.92771 c 0,4.09329 1.26995,6.65819 4.72964,6.65819 1.66176,0 2.83723,-0.21953 3.65699,-0.50576 l 0.38629,2.46765 c -1.03932,0.4335 -2.50378,0.77252 -4.44623,0.77252 -2.34814,0 -4.29613,-0.73918 -5.55497,-2.28145 -1.4561,-1.69234 -1.95631,-4.39618 -1.95631,-7.68082 l 0,-20.36082 -5.43548,0 0,-2.58435 5.43548,0 0,-5.919 3.18459,-1.17269 z m -52.44296,6.35807 c -2.44818,0 -4.64348,0.70583 -6.48587,1.84795 -1.91467,1.11988 -3.47362,2.85112 -4.39898,4.64628 l -0.13335,0 0,-15.93407 -3.18459,-0.86701 0,43.24485 3.18459,0 0,-19.69111 c 0,-1.30884 0.10012,-2.21476 0.43629,-3.17347 1.37553,-4.00436 5.1465,-7.29177 9.70942,-7.29177 6.59147,0 8.87294,5.28542 8.87294,11.08493 l 0,19.06865 3.18457,0 0,-19.41878 c 0,-11.99085 -8.13374,-13.51645 -11.18498,-13.51645 z" />
        <path
           inkscape:connector-curvature="0"
           id="path616"
           d="m 133.34765,325.91586 c 0,-4.37117 -0.0917,-7.58633 -0.26678,-10.49582 l 7.15005,0 0.30568,6.19967 0.23064,0 c 1.60897,-4.59626 5.41881,-6.94163 8.94242,-6.94163 0.80588,0 1.27551,0.0333 1.93688,0.17785 l 0,7.77807 c -0.77253,-0.15007 -1.49504,-0.23343 -2.48987,-0.23343 -3.93211,0 -6.66375,2.50377 -7.40015,6.24691 -0.13894,0.72807 -0.21397,1.60341 -0.21397,2.49265 l 0,16.93447 -8.2616,0 0.0667,-22.15875 z m 28.26671,8.05595 c 0.21953,5.91623 4.79912,8.50336 10.08732,8.50336 3.79872,0 6.51368,-0.5919 9.0119,-1.51171 l 1.22271,5.68281 c -2.79556,1.1838 -6.67487,2.07026 -11.41285,2.07026 -10.60141,0 -16.81497,-6.54703 -16.81497,-16.55654 0,-9.01467 5.46882,-17.54026 15.97019,-17.54026 10.61808,0 14.075,8.734 14.075,15.88127 0,1.53672 -0.1361,2.76776 -0.29456,3.52917 l -21.84474,-0.0584 z m 14.36401,-5.75227 c 0.0361,-3.02619 -1.28106,-7.95869 -6.8138,-7.95869 -5.08256,0 -7.19451,4.61293 -7.56688,7.95869 l 14.38068,0 z m 43.35047,-25.39058 -8.25327,-2.23422 0,18.34336 -0.1361,0 c -1.45891,-2.41207 -4.68238,-4.25724 -9.15082,-4.25724 -7.85033,0 -14.69191,6.49979 -14.63912,17.44022 0,10.04008 6.17466,16.68993 13.97218,16.68993 4.7102,0 8.65342,-2.24811 10.60421,-5.90511 l 0.14732,0 0.36959,5.16871 7.35565,0 c -0.15007,-2.22033 -0.27233,-5.81619 -0.27233,-9.15918 l 0,-36.08647 0.002,0 z m -8.25604,31.08728 c 0,0.86701 -0.0584,1.67288 -0.25011,2.41206 -0.83087,3.57364 -3.75426,5.87732 -7.1306,5.87732 -5.19928,0 -8.17544,-4.38506 -8.17544,-10.38465 0,-6.05795 2.95117,-10.74592 8.26993,-10.74592 3.71259,0 6.36917,2.6177 7.10281,5.79674 0.1416,0.66971 0.1833,1.49503 0.1833,2.15085 l 0,4.8936 0,0 z" />
        <path
           inkscape:connector-curvature="0"
           id="path650"
           d="m 310.29417,343.39561 c -1.9058,0 -3.42011,1.51425 -3.42007,3.42009 0,1.9058 1.51424,3.42012 3.42007,3.42009 1.90578,0 3.42007,-1.52163 3.42011,-3.42009 0,-1.91311 -1.51433,-3.42009 -3.42011,-3.42009 z m 0,0.58214 c 1.56993,0 2.83796,1.26801 2.83794,2.83795 0,1.56261 -1.27531,2.83795 -2.83794,2.83795 -1.56991,0 -2.83794,-1.27536 -2.83794,-2.83795 0,-1.56992 1.26799,-2.83792 2.83794,-2.83795 z m -1.16427,1.09152 0,3.49286 0.50937,0 0,-1.52813 0.6549,0 0.946,1.52813 0.58213,0 -1.01875,-1.52813 c 0.51849,-0.0657 0.94598,-0.38349 0.94598,-1.01874 -2e-5,-0.69371 -0.4046,-0.94599 -1.23703,-0.94599 l -1.3826,0 z m 0.50937,0.43661 0.72767,0 c 0.37243,-2e-5 0.80044,0.0786 0.80044,0.50938 4e-5,0.54036 -0.42048,0.58214 -0.87321,0.58214 l -0.6549,0 0,-1.09152 z" />
      </g>
      <path
         d="m 101.40169,348.81935 c -4.878938,-1.24207 -9.723127,-0.62191 -14.458484,0.83644 -0.580752,0.0849 -0.266118,0.72875 -0.361254,0.98928 0.266772,0.7753 -0.172297,1.6173 -2.362043,2.09805 -3.245729,0.71417 -5.296537,4.06271 -6.469223,5.17426 -1.378323,1.30886 -5.26875,2.11473 -4.682406,1.33386 0.458517,-0.61135 2.209206,-2.5121 3.273514,-4.56847 0.953156,-1.83684 1.800712,-2.35926 2.96784,-4.10996 0.34458,-0.51409 1.670105,-2.31758 2.056369,-3.74592 0.433504,-1.39499 0.289001,-3.14568 0.455735,-3.86541 0.238982,-1.0393 1.217147,-3.29297 1.294958,-4.5657 0.04168,-0.7225 -3.006746,1.02541 -4.45454,1.02541 -1.447794,0 -2.853906,-0.86423 -4.148861,-0.92537 -1.597853,-0.0778 -2.626036,1.23105 -4.071053,1.00318 -0.828103,-0.1306 -1.522821,-0.85867 -2.967837,-0.91425 -2.056369,-0.075 -4.568472,1.14212 -9.289781,0.99206 -4.637945,-0.15005 -8.928527,-5.86621 -9.512088,-6.7749 -0.686384,-1.06709 -1.522825,-1.06709 -2.434296,-0.23065 -0.91425,0.83644 -2.039696,0.17784 -2.359268,-0.38071 -0.608574,-1.0643 -2.236993,-4.1822 -4.757435,-4.83246 -3.487488,-0.90591 -5.252072,1.93132 -5.024207,4.18499 0.230649,2.28979 1.711789,2.93171 2.398173,4.14608 0.686382,1.21715 1.036521,2.00357 2.323137,2.54267 0.91425,0.37793 1.256053,0.94482 0.983725,1.69234 -0.238984,0.65581 -1.189361,0.80587 -1.814608,0.83366 -2.587951,0.0201 -3.573432,-1.27685 -5.060329,-3.12068 -0.797541,-1.31163 -2.05359,-1.8813 -3.518059,-1.8813 -0.697497,0 -1.350533,0.18341 -1.931316,0.48353 -2.295354,1.19213 -5.024207,1.90075 -7.961482,1.90075 l -3.315195,0 c -1.611749,-4.78523 -2.487094,-9.90669 -2.487094,-15.23658 0,-26.32706 21.338984,-47.66604 47.666049,-47.66604 26.327065,0 47.666049,21.34176 47.666049,47.66604 0.005,9.55656 -2.80666,18.45452 -7.64469,25.9158 z m -29.517126,-4.37111 c 0.244543,0.23899 0.666932,1.04208 0.150072,2.06471 -0.289003,0.54188 -0.603017,0.92259 -1.158793,1.36721 -0.672488,0.53632 -1.981339,1.15879 -3.779272,0.0167 -0.967048,-0.61413 -1.025404,-0.81977 -2.359266,-0.64748 -0.953154,0.12505 -1.33386,-0.83644 -0.989279,-1.63676 0.341801,-0.79754 1.747913,-1.44502 3.501383,-0.41683 0.789202,0.46407 2.014686,1.43946 3.090111,0.57245 0.4474,-0.3557 0.714172,-0.59468 1.331083,-1.30885 0.02779,-0.0333 0.0667,-0.05 0.111146,-0.05 0.0389,0 0.07504,0.014 0.102807,0.0389 z"
         id="path632"
         inkscape:connector-curvature="0"
         transform="translate(-13.714282,-252.57246)" />
      <path
         d="m 101.40179,348.81664 c 4.83802,-7.46129 7.64747,-16.35647 7.64747,-25.90747 0,-26.32707 -21.338993,-47.66606 -47.666069,-47.66606 -26.327074,0 -47.666064,21.34177 -47.666064,47.66606 0,5.32989 0.875345,10.45136 2.487094,15.2338 6.358068,18.85468 24.18456,32.42949 45.17897,32.42949 16.773298,0 31.520795,-8.66176 40.018599,-21.75582 z"
         style="fill:none"
         id="path646"
         inkscape:connector-curvature="0"
         transform="translate(-13.714282,-252.57246)" />
      <path
         d="m 88.282624,310.22633 c -0.472411,1.58396 -1.14212,3.60697 -4.121074,5.13814 -0.433504,0.22231 -0.600236,-0.14174 -0.400158,-0.48353 1.125444,-1.91742 1.328304,-2.39539 1.653432,-3.15124 0.458515,-1.10322 0.697497,-2.67606 -0.211201,-5.95513 -1.795153,-6.44977 -5.532742,-15.07262 -8.25326,-17.87095 -2.620477,-2.69829 -7.375133,-3.4597 -11.671278,-2.35649 -1.581178,0.40572 -4.679626,2.01747 -10.420782,0.72251 -9.934477,-2.23699 -11.404502,2.73719 -11.97695,4.90472 -0.57245,2.16752 -1.939656,8.32829 -1.939656,8.32829 -0.458517,2.50932 -1.053194,6.87215 14.372344,9.80943 7.186172,1.3672 7.552984,3.22627 7.869773,4.56291 0.569669,2.39261 1.483918,3.76537 2.509325,4.4462 1.028183,0.68638 0,1.25327 -1.139341,1.36999 -3.062317,0.31957 -14.372341,-2.92616 -21.066651,-6.72766 -5.474386,-3.34577 -5.56609,-6.35807 -4.312816,-8.91464 -8.27271,-0.89479 -14.47794,0.77253 -15.603385,4.69075 -1.934097,6.71932 14.772502,18.19607 33.793906,23.95668 19.960659,6.04406 40.490991,1.82572 42.775228,-10.7209 1.04208,-5.70503 -3.75982,-9.92059 -11.857463,-11.74908 z M 57.676088,297.94092 c -5.504952,0.39738 -6.077398,0.99205 -7.108363,2.08971 -1.456129,1.54784 -3.370773,-2.0119 -3.370773,-2.0119 -1.147675,-0.24177 -2.542671,-2.09528 -1.789597,-3.82652 0.74196,-1.71178 2.109168,-1.19769 2.537113,-0.66415 0.522429,0.64748 1.636759,1.71179 3.078994,1.67288 1.445017,-0.0361 3.112341,-0.34179 5.438259,-0.34179 2.359266,0 3.940448,0.8809 4.032148,1.63675 0.07224,0.6447 -0.191749,1.25605 -2.817781,1.44502 z m 5.785623,-9.10082 c -0.0083,0 -0.01672,0.003 -0.02502,0.003 -0.08615,0 -0.152845,-0.0639 -0.152845,-0.1445 0,-0.0584 0.03334,-0.10838 0.08615,-0.1306 1.067092,-0.56411 2.659384,-1.01151 4.482327,-1.19769 0.547438,-0.0584 1.080984,-0.0862 1.595075,-0.0917 0.09169,0 0.177843,0 0.272331,0.003 3.056763,0.0667 5.499392,1.28106 5.463266,2.71219 -0.03613,1.42834 -2.542671,2.53155 -5.596654,2.46486 -0.989278,-0.0222 -1.917423,-0.16673 -2.717739,-0.39738 -0.09449,-0.025 -0.163957,-0.1056 -0.163957,-0.20009 0,-0.0973 0.06947,-0.17784 0.16673,-0.20006 1.906306,-0.44185 3.192926,-1.16158 3.104005,-1.84518 -0.119486,-0.90313 -2.614924,-1.39221 -5.568868,-1.09766 -0.32513,0.0361 -0.641919,0.0778 -0.944816,0.12228 z"
         style="fill:#cc0000"
         id="path648"
         inkscape:connector-curvature="0"
         transform="translate(-13.714282,-252.57246)" />
      <use
         transform="translate(-213.99016,-248.5226)"
         id="use4312"
         x="0"
         y="0"
         width="744.09448"
         height="1052.3622"
         xlink:href="#path650" />
      <text
         sodipodi:linespacing="125%"
         id="text2995"
         y="113.23222"
         x="116.00862"
         style="font-size:39.74388504px;font-style:normal;font-variant:normal;font-weight:normal;font-stretch:normal;text-align:start;line-height:125%;letter-spacing:0px;word-spacing:0px;writing-mode:lr-tb;text-anchor:start;fill:#000000;fill-opacity:1;stroke:none;font-family:Interstate-Black;-inkscape-font-specification:Interstate-Black"
         xml:space="preserve"><tspan
           style="font-size:39.74388504px;font-style:normal;font-variant:normal;font-weight:normal;font-stretch:normal;text-align:start;line-height:125%;writing-mode:lr-tb;text-anchor:start;font-family:Interstate-Light;-inkscape-font-specification:Interstate-Light"
           y="113.23222"
           x="116.00862"
           id="tspan2997"
           sodipodi:role="line">TRAINING</tspan></text>
    </g>
  </g>
</svg>
