<?xml version="1.0" encoding="UTF-8" standalone="no"?>
<!-- Created with Inkscape (http://www.inkscape.org/) -->

<svg
   xmlns:dc="http://purl.org/dc/elements/1.1/"
   xmlns:cc="http://creativecommons.org/ns#"
   xmlns:rdf="http://www.w3.org/1999/02/22-rdf-syntax-ns#"
   xmlns:svg="http://www.w3.org/2000/svg"
   xmlns="http://www.w3.org/2000/svg"
   xmlns:sodipodi="http://sodipodi.sourceforge.net/DTD/sodipodi-0.dtd"
   xmlns:inkscape="http://www.inkscape.org/namespaces/inkscape"
   width="20"
   height="20"
   id="svg2924"
   version="1.1"
   inkscape:version="0.47 r22583"
   sodipodi:docname="checklist.svg">
  <defs
     id="defs2926">
    <inkscape:perspective
       sodipodi:type="inkscape:persp3d"
       inkscape:vp_x="0 : 526.18109 : 1"
       inkscape:vp_y="0 : 1000 : 0"
       inkscape:vp_z="744.09448 : 526.18109 : 1"
       inkscape:persp3d-origin="372.04724 : 350.78739 : 1"
       id="perspective2932" />
    <inkscape:perspective
       id="perspective2919"
       inkscape:persp3d-origin="0.5 : 0.33333333 : 1"
       inkscape:vp_z="1 : 0.5 : 1"
       inkscape:vp_y="0 : 1000 : 0"
       inkscape:vp_x="0 : 0.5 : 1"
       sodipodi:type="inkscape:persp3d" />
    <inkscape:perspective
       id="perspective3040"
       inkscape:persp3d-origin="0.5 : 0.33333333 : 1"
       inkscape:vp_z="1 : 0.5 : 1"
       inkscape:vp_y="0 : 1000 : 0"
       inkscape:vp_x="0 : 0.5 : 1"
       sodipodi:type="inkscape:persp3d" />
  </defs>
  <sodipodi:namedview
     id="base"
     pagecolor="#ffffff"
     bordercolor="#666666"
     borderopacity="1.0"
     inkscape:pageopacity="0.0"
     inkscape:pageshadow="2"
     inkscape:zoom="11.2"
     inkscape:cx="1.9872941"
     inkscape:cy="21.875"
     inkscape:document-units="px"
     inkscape:current-layer="layer1"
     showgrid="false"
     inkscape:window-width="1656"
     inkscape:window-height="845"
     inkscape:window-x="9"
     inkscape:window-y="98"
     inkscape:window-maximized="0" />
  <metadata
     id="metadata2929">
    <rdf:RDF>
      <cc:Work
         rdf:about="">
        <dc:format>image/svg+xml</dc:format>
        <dc:type
           rdf:resource="http://purl.org/dc/dcmitype/StillImage" />
        <dc:title />
      </cc:Work>
    </rdf:RDF>
  </metadata>
  <g
     inkscape:label="Layer 1"
     inkscape:groupmode="layer"
     id="layer1"
     transform="translate(-190,-359.50504)">
    <rect
       style="fill:#ffffff;stroke:#241c1c;stroke-width:2.03577328"
       id="rect3675"
       width="11.553518"
       height="12.267811"
       x="194.35716"
       y="363.32651" />
    <path
       style="fill:#b3b3b3;fill-opacity:0.98706863;stroke:#b3b3b3;stroke-width:1.98956192;stroke-miterlimit:4;stroke-opacity:0.98275865;stroke-dasharray:none"
       id="path3734"
       d="m 192.42653,371.44418 c 0.65812,0.69286 1.26438,1.44168 1.86347,2.19309 0.46782,0.56407 0.90103,1.15805 1.34095,1.74664 0.12195,0.16551 0.25672,0.31915 0.39662,0.46714 0.007,-0.0423 0.11345,0.21881 0.11101,0.17082 -0.12394,-0.44661 -0.002,-0.063 -1.03193,0.56244 -2e-4,1.2e-4 0.0338,-0.005 0.0529,-0.0585 0.004,-0.11821 0.0978,-0.18871 0.16135,-0.27475 0.0411,-0.0555 0.0791,-0.11369 0.11865,-0.17053 0.45883,-0.67964 0.86409,-1.39873 1.26524,-2.11843 0.3868,-0.68283 0.75042,-1.38259 1.17714,-2.03847 0.30998,-0.47644 0.37368,-0.5415 0.718,-0.99084 0.7761,-0.90939 1.62075,-1.74923 2.47389,-2.57432 0.52987,-0.50134 1.04196,-1.027 1.61334,-1.47475 0.01,-0.007 0.18528,-0.14372 0.20935,-0.15892 0.37552,-0.23717 0.75293,-0.47088 1.13079,-0.70372 1.1859,-0.73076 -3.86766,2.38723 0.7373,-0.44696 -0.21696,0.13263 -0.86688,0.53232 -0.65088,0.3979 0.80244,-0.4994 1.60937,-0.989 2.41556,-1.48088 0.1188,-0.0717 0.14801,-0.0903 0.26341,-0.15625 0.0383,-0.0219 0.1529,-0.0881 0.11538,-0.0647 -1.95935,1.22038 -0.31947,0.18207 0.363,-0.21833 0.0357,-0.0211 0.14223,-0.0851 0.10697,-0.0632 -0.30882,0.19144 -0.61803,0.38215 -0.92768,0.57201 -0.0266,0.0163 0.0526,-0.034 0.0786,-0.0514 0.0353,-0.0235 0.0689,-0.05 0.10479,-0.0725 0.35543,-0.22166 0.71182,-0.44155 1.06772,-0.66233 -0.33088,0.20488 -0.66154,0.41022 -0.99267,0.61463 -0.01,0.006 0.0197,-0.0117 0.0283,-0.0193 0.0514,-0.045 -9.5e-4,-0.015 0.0637,-0.055 0.36106,-0.22158 0.71784,-0.45153 1.08459,-0.66208 0.0274,-0.0158 0.0615,-0.009 0.0923,-0.0136 0.17241,-0.015 0.33454,-0.0854 0.5032,-0.12067 0.0154,-0.003 0.0309,-0.006 0.0463,-0.009 0,0 -0.9576,0.77815 -0.9576,0.77815 l 0,0 c -0.0146,0.004 -0.0293,0.007 -0.0439,0.0107 -0.16526,0.0465 -0.33201,0.0855 -0.49956,0.12114 -0.0271,0.011 -0.10596,0.049 -0.0812,0.033 2.54387,-1.64067 -0.12413,0.1374 -0.1796,0.12933 2.31448,-1.44478 0.006,0.0224 -0.42405,0.27322 -0.0407,0.0236 -0.16223,0.0961 -0.12228,0.0709 0.29848,-0.18836 1.19946,-0.74325 0.89798,-0.56046 -0.50549,0.3065 -1.00128,0.62962 -1.51143,0.92666 -0.23381,0.14269 -0.46873,0.28288 -0.70342,0.42388 -0.11157,0.0671 -0.44331,0.27369 -0.33363,0.20317 0.0768,-0.0494 3.00525,-1.87579 -0.71801,0.44709 2.52934,-1.58007 -2.88115,1.7728 0.1599,-0.10886 0.0756,-0.0468 -0.34391,0.22305 -0.21657,0.15791 -0.59243,0.43061 -1.10628,0.9693 -1.64447,1.47204 -0.85576,0.8204 -1.69722,1.66126 -2.48343,2.55882 -0.33961,0.43479 -0.41724,0.51613 -0.72257,0.97875 -0.42929,0.65046 -0.79003,1.34893 -1.17413,2.02998 -0.39461,0.71765 -0.79291,1.43476 -1.23865,2.11761 -0.0859,0.13471 -0.16277,0.28918 -0.29253,0.38184 0.006,0.49554 -0.77213,1.13096 -1.11943,0.75267 -0.0429,-0.0581 -0.064,-0.13099 -0.11427,-0.18445 -0.13948,-0.15469 -0.27737,-0.3115 -0.3968,-0.48493 -0.42177,-0.59959 -0.84688,-1.19574 -1.31138,-1.75884 -0.59428,-0.74621 -1.19543,-1.49721 -1.88161,-2.14841 0,0 1.01188,-0.68662 1.01188,-0.68662 z" />
  </g>
</svg>
