<?xml version="1.0" encoding="UTF-8" standalone="no"?>
<!-- Generator: Adobe Illustrator 14.0.0, SVG Export Plug-In . SVG Version: 6.00 Build 43363)  -->

<svg
   xmlns:dc="http://purl.org/dc/elements/1.1/"
   xmlns:cc="http://creativecommons.org/ns#"
   xmlns:rdf="http://www.w3.org/1999/02/22-rdf-syntax-ns#"
   xmlns:svg="http://www.w3.org/2000/svg"
   xmlns="http://www.w3.org/2000/svg"
   xmlns:sodipodi="http://sodipodi.sourceforge.net/DTD/sodipodi-0.dtd"
   xmlns:inkscape="http://www.inkscape.org/namespaces/inkscape"
   version="1.1"
   id="logo"
   x="0px"
   y="0px"
   width="539.99902"
   height="140.39999"
   viewBox="0 0 539.99902 140.39999"
   enable-background="new 0 0 1100 300"
   xml:space="preserve"
   inkscape:version="0.48.1 r9760"
   sodipodi:docname="rhjb-logo.svg"><metadata
   id="metadata99"><rdf:RDF><cc:Work
       rdf:about=""><dc:format>image/svg+xml</dc:format><dc:type
         rdf:resource="http://purl.org/dc/dcmitype/StillImage" /></cc:Work></rdf:RDF></metadata><defs
   id="defs97" /><sodipodi:namedview
   pagecolor="#ffffff"
   bordercolor="#666666"
   borderopacity="1"
   objecttolerance="10"
   gridtolerance="10"
   guidetolerance="10"
   inkscape:pageopacity="0"
   inkscape:pageshadow="2"
   inkscape:window-width="640"
   inkscape:window-height="480"
   id="namedview95"
   showgrid="false"
   fit-margin-top="0"
   fit-margin-left="0"
   fit-margin-right="0"
   fit-margin-bottom="0"
   inkscape:zoom="0.46363636"
   inkscape:cx="280.07"
   inkscape:cy="64.039"
   inkscape:window-x="0"
   inkscape:window-y="27"
   inkscape:window-maximized="0"
   inkscape:current-layer="logo" />
<g
   id="g3"
   transform="translate(-269.93,-79.638993)">
	<g
   id="logo_2_">
		<g
   id="white_1_">
			<path
   d="m 350.747,177.136 c -1.687,-0.375 -3.479,-0.595 -5.293,-0.595 -3.126,0 -5.948,0.538 -8.031,1.393 -0.226,0.122 -0.392,0.337 -0.392,0.634 0,0.111 0.014,0.172 0.055,0.266 0.244,0.732 -0.149,1.48 -2.166,1.966 -2.995,0.621 -4.889,3.709 -5.971,4.762 -1.266,1.183 -4.842,1.941 -4.311,1.206 0.423,-0.563 2.038,-2.285 3.014,-4.207 0.886,-1.705 1.666,-2.182 2.746,-3.8 0.307,-0.466 1.537,-2.14 1.889,-3.434 0.402,-1.304 0.264,-2.921 0.422,-3.548 0.216,-0.981 1.13,-3.073 1.18,-4.208 0.044,-0.678 -2.759,0.937 -4.093,0.937 -1.334,0 -2.631,-0.825 -3.833,-0.874 -1.467,-0.04 -2.405,1.133 -3.74,0.95 -0.758,-0.133 -1.41,-0.818 -2.742,-0.871 -1.9,-0.075 -4.211,1.054 -8.554,0.949 -4.278,-0.152 -8.23,-5.421 -8.771,-6.286 -0.641,-0.975 -1.412,-0.975 -2.257,-0.181 -0.836,0.745 -1.881,0.164 -2.159,-0.353 -0.562,-1.007 -2.079,-3.851 -4.398,-4.459 -3.218,-0.815 -4.828,1.797 -4.619,3.873 0.209,2.109 1.577,2.695 2.195,3.787 0.64,1.129 0.969,1.869 2.146,2.361 0.846,0.339 1.164,0.855 0.915,1.563 -0.216,0.607 -1.1,0.757 -1.681,0.772 -1.216,0.032 -2.08,-0.282 -2.714,-0.671 -0.723,-0.46 -1.32,-1.114 -1.942,-2.211 -0.73,-1.221 -1.897,-1.748 -3.249,-1.748 -0.629,0 -1.238,0.185 -1.773,0.438 -2.114,1.106 -4.642,1.767 -7.335,1.767 l -3.069,0.002 c 5.864,17.376 22.302,29.876 41.643,29.876 15.473,0 29.057,-7.941 36.888,-20.056 z"
   id="path7"
   inkscape:connector-curvature="0"
   style="fill:#ffffff" />
		</g>
		<g
   id="black_1_">
			<g
   id="g10">
				<path
   d="m 357.348,174.817 h 0.408 l 0.605,0.975 h 0.372 l -0.635,-0.994 c 0.319,-0.045 0.571,-0.236 0.571,-0.63 0,-0.443 -0.265,-0.656 -0.8,-0.656 h -0.848 v 2.28 h 0.326 v -0.975 z m 0,-0.315 v -0.675 h 0.486 c 0.236,0 0.491,0.059 0.491,0.316 0,0.356 -0.257,0.358 -0.553,0.358 h -0.424 z"
   id="path12"
   inkscape:connector-curvature="0" />
				<path
   d="m 359.977,174.655 c 0,1.239 -0.992,2.229 -2.209,2.229 -1.224,0 -2.231,-0.99 -2.231,-2.229 0,-1.21 1.007,-2.232 2.231,-2.232 1.217,0 2.209,1.022 2.209,2.232 z m -2.21,-1.802 c -1.005,0 -1.827,0.797 -1.827,1.804 0,1.004 0.821,1.845 1.827,1.845 1.003,0 1.824,-0.841 1.824,-1.845 0,-1.008 -0.82,-1.804 -1.824,-1.804 z"
   id="path14"
   inkscape:connector-curvature="0" />
			</g>
			<g
   id="g16">
				<path
   d="m 350.747,177.14 c -1.687,-0.379 -3.479,-0.596 -5.293,-0.596 -3.126,0 -5.948,0.539 -8.031,1.39 -0.226,0.124 -0.392,0.339 -0.392,0.636 0,0.109 0.014,0.173 0.055,0.264 0.244,0.733 -0.149,1.482 -2.166,1.967 -2.995,0.62 -4.889,3.708 -5.971,4.761 -1.266,1.183 -4.842,1.944 -4.311,1.209 0.423,-0.565 2.038,-2.286 3.014,-4.208 0.886,-1.703 1.666,-2.182 2.746,-3.8 0.307,-0.468 1.537,-2.142 1.889,-3.432 0.402,-1.308 0.264,-2.923 0.422,-3.552 0.216,-0.981 1.13,-3.072 1.18,-4.207 0.044,-0.675 -2.759,0.936 -4.093,0.936 -1.334,0 -2.631,-0.82 -3.833,-0.874 -1.467,-0.04 -2.405,1.134 -3.74,0.952 -0.758,-0.133 -1.41,-0.814 -2.742,-0.87 -1.9,-0.077 -4.211,1.052 -8.554,0.947 -4.278,-0.149 -8.23,-5.418 -8.771,-6.284 -0.641,-0.977 -1.412,-0.977 -2.257,-0.181 -0.836,0.742 -1.881,0.161 -2.159,-0.355 -0.562,-1.005 -2.079,-3.851 -4.398,-4.457 -3.218,-0.817 -4.828,1.797 -4.619,3.871 0.209,2.109 1.577,2.695 2.195,3.787 0.64,1.129 0.969,1.873 2.146,2.366 0.846,0.334 1.164,0.854 0.915,1.56 -0.216,0.609 -1.1,0.76 -1.681,0.772 -1.216,0.033 -2.08,-0.281 -2.714,-0.672 -0.723,-0.456 -1.32,-1.111 -1.942,-2.21 -0.73,-1.222 -1.897,-1.746 -3.249,-1.746 -0.629,0 -1.238,0.186 -1.773,0.437 -2.114,1.104 -4.642,1.767 -7.335,1.767 h -3.069 c -1.479,-4.416 -2.286,-9.146 -2.286,-14.026 0,-24.275 19.662,-43.952 43.928,-43.952 24.267,0 43.951,19.677 43.951,43.952 -0.001,8.79 -2.588,16.987 -7.062,23.848 z"
   id="path18"
   inkscape:connector-curvature="0" />
			</g>
			<path
   d="m 380.203,156.031 c 0,-4.018 -0.091,-6.977 -0.245,-9.648 h 6.59 l 0.285,5.71 h 0.211 c 1.472,-4.24 4.989,-6.404 8.247,-6.404 0.738,0 1.164,0.031 1.779,0.18 v 7.151 c -0.712,-0.153 -1.383,-0.188 -2.294,-0.188 -3.636,0 -6.143,2.276 -6.835,5.753 -0.116,0.637 -0.191,1.466 -0.191,2.265 v 15.64 h -7.613 l 0.066,-20.459 z"
   id="path20"
   inkscape:connector-curvature="0" />
			<path
   d="m 406.254,163.456 c 0.196,5.469 4.418,7.877 9.303,7.877 3.483,0 6,-0.545 8.295,-1.42 l 1.132,5.233 c -2.568,1.097 -6.158,1.938 -10.516,1.938 -9.776,0 -15.495,-6.058 -15.495,-15.258 0,-8.342 5.031,-16.2 14.717,-16.2 9.791,0 12.979,8.062 12.979,14.629 0,1.445 -0.138,2.589 -0.272,3.259 l -20.143,-0.058 z m 13.242,-5.307 c 0.038,-2.754 -1.19,-7.329 -6.272,-7.329 -4.704,0 -6.636,4.254 -6.985,7.329 h 13.257 z"
   id="path22"
   inkscape:connector-curvature="0" />
			<path
   d="m 451.842,163.414 c 0,0.81 -0.061,1.572 -0.228,2.219 -0.763,3.305 -3.462,5.429 -6.57,5.429 -4.796,0 -7.548,-4.024 -7.548,-9.577 0,-5.566 2.725,-9.898 7.641,-9.898 3.422,0 5.856,2.394 6.542,5.352 0.118,0.624 0.163,1.358 0.163,1.976 v 4.499 z m 7.604,-28.621 -7.604,-2.149 v 16.964 h -0.116 c -1.346,-2.211 -4.319,-3.918 -8.437,-3.918 -7.244,0 -13.543,6.007 -13.494,16.099 0,9.229 5.683,15.344 12.878,15.344 4.331,0 7.981,-2.067 9.775,-5.411 h 0.124 l 0.349,4.769 h 6.775 c -0.13,-2.04 -0.25,-5.369 -0.25,-8.442 v -33.256 z"
   id="path24"
   inkscape:connector-curvature="0" />
			<path
   d="m 479.58,145.652 c -2.285,0 -4.358,0.673 -6.072,1.739 -1.786,1.048 -3.256,2.672 -4.111,4.358 h -0.126 V 137.65 l -2.987,-0.889 v 39.729 h 2.987 v -18.42 c 0,-1.239 0.102,-2.069 0.395,-2.997 1.308,-3.753 4.825,-6.818 9.097,-6.818 6.176,0 8.301,4.962 8.301,10.4 v 17.835 h 2.974 v -18.193 c -0.001,-11.211 -7.608,-12.645 -10.458,-12.645 z"
   id="path26"
   inkscape:connector-curvature="0" />
			<path
   d="m 516.784,169.307 c 0,2.404 0.084,4.857 0.432,7.183 h -2.737 l -0.446,-4.326 h -0.131 c -1.472,2.335 -4.823,4.978 -9.615,4.978 -6.062,0 -8.875,-4.235 -8.875,-8.266 0,-6.963 6.145,-11.147 18.387,-11.008 v -0.785 c 0,-3.008 -0.584,-8.942 -7.71,-8.891 -2.636,0 -5.37,0.697 -7.555,2.233 l -0.939,-2.171 c 2.738,-1.845 6.094,-2.602 8.827,-2.602 8.692,0 10.363,6.543 10.363,11.937 v 11.718 z m -2.986,-8.944 c -6.557,-0.159 -15.215,0.829 -15.215,8.048 0,4.339 2.854,6.271 5.989,6.271 5.021,0 7.872,-3.103 8.91,-6.013 0.219,-0.654 0.315,-1.311 0.315,-1.826 v -6.48 z"
   id="path28"
   inkscape:connector-curvature="0" />
			<path
   d="m 528.648,139.712 v 6.643 h 8.577 v 2.418 h -8.577 v 19.565 c 0,3.845 1.178,6.223 4.42,6.223 1.55,0 2.652,-0.175 3.422,-0.467 l 0.37,2.324 c -0.989,0.397 -2.343,0.706 -4.172,0.706 -2.187,0 -4.007,-0.671 -5.195,-2.111 -1.369,-1.574 -1.829,-4.141 -1.829,-7.205 v -19.035 h -5.09 v -2.418 h 5.09 v -5.54 l 2.984,-1.103 z"
   id="path30"
   inkscape:connector-curvature="0" />
			<g
   id="g32">
				<path
   d="m 540.997,174.883 h 0.384 l 0.603,0.976 h 0.396 l -0.657,-0.997 c 0.343,-0.044 0.595,-0.235 0.595,-0.629 0,-0.442 -0.269,-0.655 -0.801,-0.655 h -0.872 v 2.281 h 0.351 v -0.976 z m 0,-0.319 v -0.672 h 0.461 c 0.234,0 0.491,0.059 0.491,0.314 0,0.332 -0.257,0.357 -0.553,0.357 h -0.399 z"
   id="path34"
   inkscape:connector-curvature="0" />
				<path
   d="m 543.623,174.719 c 0,1.239 -0.99,2.23 -2.232,2.23 -1.214,0 -2.207,-0.991 -2.207,-2.23 0,-1.241 0.993,-2.23 2.207,-2.23 1.242,-0.001 2.232,0.989 2.232,2.23 z m -2.232,-1.815 c -1.008,0 -1.826,0.811 -1.826,1.815 0,1.004 0.818,1.845 1.826,1.845 1.027,0 1.839,-0.841 1.839,-1.845 0,-1.004 -0.812,-1.815 -1.839,-1.815 z"
   id="path36"
   inkscape:connector-curvature="0" />
			</g>
			<path
   d="m 323.551,173.126 c 0.222,0.239 0.6,0.956 0.126,1.89 -0.267,0.536 -0.555,0.873 -1.068,1.272 -0.607,0.494 -1.825,1.068 -3.489,0.02 -0.875,-0.569 -0.935,-0.753 -2.156,-0.603 -0.886,0.126 -1.244,-0.746 -0.924,-1.504 0.321,-0.752 1.618,-1.308 3.233,-0.371 0.721,0.418 1.86,1.307 2.846,0.529 0.411,-0.358 0.668,-0.55 1.218,-1.223 0.029,-0.029 0.068,-0.048 0.112,-0.048 0.039,0.001 0.074,0.016 0.102,0.038 z"
   id="path38"
   inkscape:connector-curvature="0" />
		</g>
		<path
   id="red_1_"
   d="m 310.438,130.268 c -5.057,0.353 -5.584,0.903 -6.549,1.917 -1.342,1.432 -3.101,-1.858 -3.101,-1.858 -1.06,-0.219 -2.342,-1.916 -1.657,-3.512 0.696,-1.577 1.952,-1.109 2.336,-0.622 0.495,0.604 1.524,1.577 2.857,1.538 1.33,-0.038 2.866,-0.299 5.012,-0.299 2.154,0 3.627,0.793 3.703,1.504 0.067,0.601 -0.178,1.142 -2.601,1.332 z m 5.337,-8.386 c -0.007,0 -0.016,0 -0.024,0 -0.076,0 -0.131,-0.06 -0.131,-0.139 0,-0.058 0.036,-0.105 0.064,-0.111 1,-0.527 2.458,-0.942 4.146,-1.105 0.502,-0.056 0.992,-0.085 1.461,-0.089 0.091,0 0.18,0 0.25,0 2.831,0.07 5.076,1.193 5.04,2.501 -0.037,1.326 -2.34,2.339 -5.149,2.271 -0.922,-0.023 -1.784,-0.16 -2.515,-0.375 -0.078,-0.025 -0.14,-0.082 -0.14,-0.177 0,-0.095 0.062,-0.155 0.143,-0.178 1.765,-0.419 2.946,-1.072 2.855,-1.709 -0.096,-0.836 -2.405,-1.282 -5.121,-1.008 -0.302,0.034 -0.595,0.075 -0.879,0.119 z m 22.876,19.711 c -0.427,1.448 -1.052,3.317 -3.785,4.734 -0.412,0.2 -0.556,-0.143 -0.378,-0.44 1.038,-1.781 1.225,-2.215 1.519,-2.91 0.438,-1.032 0.654,-2.469 -0.189,-5.501 -1.659,-5.936 -5.106,-13.887 -7.602,-16.46 -2.422,-2.499 -6.795,-3.19 -10.754,-2.179 -1.471,0.384 -4.32,1.859 -9.613,0.679 -9.152,-2.082 -10.512,2.513 -11.037,4.5 -0.527,2.013 -1.783,7.678 -1.783,7.678 -0.435,2.322 -0.976,6.334 13.254,9.05 6.607,1.256 6.947,2.979 7.243,4.204 0.526,2.214 1.371,3.474 2.308,4.107 0.959,0.625 0,1.146 -1.05,1.263 -2.814,0.295 -13.239,-2.704 -19.409,-6.215 -5.051,-3.078 -5.142,-5.867 -3.978,-8.222 -7.622,-0.812 -13.337,0.731 -14.375,4.333 -1.794,6.203 13.611,16.788 31.133,22.101 18.42,5.55 37.339,1.644 39.443,-9.921 0.945,-5.228 -3.475,-9.133 -10.947,-10.801 z"
   inkscape:connector-curvature="0"
   style="fill:#ffffff" />
	</g>
	<g
   id="g41">
		<polygon
   points="583.746,85.902 585.012,85.902 585.012,214.039 583.746,214.039 583.746,214.039 "
   id="polygon43" />
	</g>
	<g
   id="g45">
		<g
   id="g47">
			<path
   d="m 747.504,190.586 2.472,4.897 h -2.062 l -2.398,-4.73 h -2.704 v 4.73 h -1.728 v -11.987 h 5.24 c 2.082,0 3.809,1.113 3.809,3.606 -0.001,1.895 -1.003,3.085 -2.629,3.484 z m -1.181,-5.39 h -3.513 v 3.856 h 3.513 c 1.162,0 2.025,-0.624 2.025,-1.898 0.001,-1.259 -0.844,-1.958 -2.025,-1.958 z"
   id="path49"
   inkscape:connector-curvature="0" />
			<path
   d="m 759.89,191.609 h -5.939 c 0.205,1.736 1.171,2.442 2.269,2.442 0.725,0 1.328,-0.25 1.933,-0.686 l 1.04,1.132 c -0.762,0.727 -1.713,1.144 -3.085,1.144 -2.101,0 -3.89,-1.655 -3.89,-4.656 0,-3.029 1.604,-4.676 3.945,-4.676 2.536,0 3.782,2.063 3.782,4.518 -0.001,0.306 -0.038,0.577 -0.055,0.782 z m -3.858,-3.709 c -1.19,0 -1.877,0.825 -2.046,2.266 h 4.165 c -0.093,-1.243 -0.669,-2.266 -2.119,-2.266 z"
   id="path51"
   inkscape:connector-curvature="0" />
			<path
   d="M 767.498,195.483 V 194.6 c -0.613,0.604 -1.386,1.041 -2.313,1.041 -1.945,0 -3.474,-1.386 -3.474,-4.806 0,-3.085 1.679,-4.526 3.566,-4.526 0.892,0 1.729,0.476 2.221,1.022 v -3.39 l 1.756,-0.94 v 12.481 h -1.756 z m 0.019,-6.356 c -0.382,-0.53 -1.18,-1.191 -2.101,-1.191 -1.236,0 -1.933,0.949 -1.933,2.874 0,2.219 0.735,3.203 2.007,3.203 0.864,0 1.57,-0.53 2.026,-1.104 v -3.782 z"
   id="path53"
   inkscape:connector-curvature="0" />
			<path
   d="m 784.008,195.483 v -5.37 h -5.473 v 5.37 h -1.812 v -11.987 h 1.812 v 4.841 h 5.473 v -4.841 h 1.812 v 11.987 h -1.812 z"
   id="path55"
   inkscape:connector-curvature="0" />
			<path
   d="m 793.815,195.483 v -0.921 c -0.62,0.624 -1.519,1.079 -2.487,1.079 -1.44,0 -3.104,-0.799 -3.104,-3.013 0,-1.986 1.533,-2.879 3.559,-2.879 0.864,0 1.543,0.081 2.032,0.324 v -0.679 c 0,-0.967 -0.601,-1.514 -1.698,-1.514 -0.909,0 -1.643,0.186 -2.359,0.568 l -0.65,-1.312 c 0.837,-0.529 1.783,-0.828 3.066,-0.828 1.989,0 3.336,0.967 3.336,2.994 v 6.18 h -1.695 z m 0,-3.837 c -0.481,-0.262 -1.092,-0.381 -2.089,-0.381 -1.086,0 -1.819,0.512 -1.819,1.31 0,0.908 0.567,1.478 1.736,1.478 0.931,0 1.729,-0.567 2.172,-1.108 v -1.299 z"
   id="path57"
   inkscape:connector-curvature="0" />
			<path
   d="m 802.319,195.24 c -0.418,0.262 -1.023,0.401 -1.691,0.401 -1.265,0 -2.021,-0.743 -2.021,-2.354 v -5.162 h -1.287 v -1.61 h 1.287 v -2.555 l 1.705,-0.959 v 3.514 h 2.23 v 1.61 h -2.23 v 4.83 c 0,0.865 0.297,1.078 0.91,1.078 0.503,0 1.014,-0.14 1.32,-0.343 l -0.223,1.55 z"
   id="path59"
   inkscape:connector-curvature="0" />
		</g>
		<g
   id="g61">
			<path
   d="m 719.458,141.497 c 2.944,-1.473 4.949,-4.23 4.949,-7.61 0,-7.881 -7.121,-9.589 -13.647,-9.468 h -17.581 -0.062 -9.763 v 25.167 c 0,3.673 -1.293,4.911 -3.53,4.911 -2.469,0 -3.82,-1.354 -3.82,-3.854 v -3.469 h -9.244 v 1.613 c 0,8.419 3.188,14.173 13.186,14.173 8.181,0 12.5,-3.605 13.172,-10.717 v 9.95 h 18.114 c 8.108,0 14.701,-2.761 14.701,-11.756 -10e-4,-4.287 -2.467,-7.762 -6.475,-8.94 z m -16.516,-9.468 h 7.587 c 2.085,0 4.052,0.916 4.052,3.649 0,2.704 -2.346,3.605 -4.052,3.605 h -7.587 v -7.254 z m 7.876,22.288 h -7.876 v -8.7 h 7.876 c 2.948,0 5.296,1.117 5.296,4.458 0,3.122 -2.176,4.242 -5.296,4.242 z"
   id="path63"
   inkscape:connector-curvature="0" />
			<path
   d="m 705.895,189.081 c 0,-6.386 -5.171,-11.562 -11.561,-11.562 -6.401,0 -11.568,5.177 -11.568,11.562 0,6.398 5.167,11.563 11.568,11.563 6.39,0.001 11.561,-5.165 11.561,-11.563 z"
   id="path65"
   inkscape:connector-curvature="0" />
			<path
   d="m 675.197,185.437 c 0,-5.663 -4.615,-10.257 -10.263,-10.257 -5.645,0 -10.261,4.594 -10.261,10.257 0,5.646 4.616,10.22 10.261,10.22 5.648,-0.001 10.263,-4.575 10.263,-10.22 z"
   id="path67"
   inkscape:connector-curvature="0" />
			<path
   d="m 652.012,166.927 c 0,-5.092 -4.124,-9.273 -9.222,-9.273 -5.101,0 -9.263,4.182 -9.263,9.273 0,5.104 4.162,9.237 9.263,9.237 5.098,0 9.222,-4.133 9.222,-9.237 z"
   id="path69"
   inkscape:connector-curvature="0" />
			<path
   d="m 647.759,141.151 c 0,-4.551 -3.693,-8.24 -8.284,-8.24 -4.544,0 -8.246,3.689 -8.246,8.24 0,4.565 3.702,8.269 8.246,8.269 4.59,0 8.284,-3.704 8.284,-8.269 z"
   id="path71"
   inkscape:connector-curvature="0" />
			<path
   d="m 659.335,118.024 c 0,-3.818 -3.122,-6.937 -6.951,-6.937 -3.843,0 -6.946,3.118 -6.946,6.937 0,3.846 3.104,6.946 6.946,6.946 3.829,0.001 6.951,-3.099 6.951,-6.946 z"
   id="path73"
   inkscape:connector-curvature="0" />
			<path
   d="m 679.133,107.784 c 0,-3.469 -2.82,-6.273 -6.27,-6.273 -3.478,0 -6.274,2.804 -6.274,6.273 0,3.476 2.797,6.279 6.274,6.279 3.449,0 6.27,-2.803 6.27,-6.279 z"
   id="path75"
   inkscape:connector-curvature="0" />
			<path
   d="m 699.966,104.48 c 0,-2.914 -2.375,-5.281 -5.275,-5.281 -2.939,0 -5.288,2.367 -5.288,5.281 0,2.917 2.349,5.278 5.288,5.278 2.9,0 5.275,-2.36 5.275,-5.278 z"
   id="path77"
   inkscape:connector-curvature="0" />
		</g>
		<g
   id="g79">
			<g
   id="g81">
				<path
   d="m 796.846,145.792 c -4.116,-0.907 -10.422,-1.376 -10.422,-3.971 0,-1.911 2.364,-2.057 3.833,-2.057 1.114,0 2.109,0.209 2.878,0.676 0.704,0.473 1.166,1.231 1.166,2.375 h 8.297 c -0.333,-7.137 -6.645,-8.876 -12.635,-8.876 -5.039,0 -11.524,1.559 -12.441,7.078 -1.219,-5.63 -6.902,-7.078 -12.386,-7.078 -5.409,0 -12.834,1.797 -12.834,8.41 0,0.104 0.019,0.212 0.021,0.337 -2.093,-5.231 -7.017,-8.747 -13.374,-8.747 -6.884,0 -12.053,4.024 -13.771,9.94 1.309,1.784 2.022,4.124 2.022,6.558 0,1.99 -0.312,3.78 -0.909,5.328 2.341,4.386 6.921,7.195 12.658,7.195 6.076,0 10.864,-3.216 13.107,-8.024 1.183,6.216 7.255,8.024 13.236,8.024 5.115,0 10.771,-1.658 12.579,-6.409 1.831,4.904 7.372,6.409 12.786,6.409 6.188,0 13.184,-2.412 13.184,-9.764 10e-4,-2.288 -1.467,-6.284 -6.995,-7.404 z m -57.897,10.293 c -4.189,0 -5.471,-4.113 -5.471,-7.592 0,-3.491 1.281,-7.677 5.471,-7.677 4.175,0 5.473,4.186 5.473,7.677 0,3.479 -1.298,7.592 -5.473,7.592 z m 26.286,1.052 c -1.287,0 -2.487,-0.288 -3.353,-0.938 -0.878,-0.684 -1.472,-1.701 -1.472,-3.055 h -7.704 c 0.49,-1.442 0.712,-3.024 0.712,-4.652 0,-0.771 -0.074,-1.53 -0.159,-2.256 2.109,3.623 7.383,3.984 11.804,5.086 1.582,0.399 4.404,0.821 4.404,2.931 10e-4,2.18 -2.496,2.884 -4.232,2.884 z m 25.379,0 c -1.287,0 -2.521,-0.288 -3.351,-0.938 -0.88,-0.684 -1.476,-1.701 -1.476,-3.055 h -7.326 c -0.021,-2.297 -1.505,-6.241 -6.995,-7.352 -4.116,-0.907 -10.167,-1.376 -10.167,-3.971 0,-1.911 2.664,-2.057 4.132,-2.057 1.116,0 2.109,0.209 2.878,0.676 0.751,0.473 1.167,1.231 1.167,2.375 h 7.983 c 0.301,6.934 7.442,7.122 12.982,8.508 1.581,0.399 4.402,0.821 4.402,2.931 0.002,2.179 -2.525,2.883 -4.229,2.883 z"
   id="path83"
   inkscape:connector-curvature="0" />
			</g>
			<path
   d="m 804.627,129.177 h 0.802 l 1.193,1.966 h 0.803 l -1.324,-2.006 c 0.683,-0.091 1.188,-0.43 1.188,-1.246 0,-0.922 -0.528,-1.302 -1.608,-1.302 h -1.758 v 4.554 h 0.705 v -1.966 z m 0,-0.598 v -1.418 h 0.938 c 0.466,0 0.99,0.11 0.99,0.68 0,0.694 -0.524,0.739 -1.114,0.739 h -0.814 z"
   id="path85"
   inkscape:connector-curvature="0" />
			<path
   d="m 809.929,128.875 c 0,2.479 -1.997,4.47 -4.497,4.47 -2.465,0 -4.463,-1.99 -4.463,-4.47 0,-2.487 1.998,-4.482 4.463,-4.482 2.5,0.001 4.497,1.996 4.497,4.482 z m -4.497,-3.684 c -2.039,0 -3.66,1.649 -3.66,3.685 0,2.025 1.621,3.673 3.66,3.673 2.068,0 3.72,-1.648 3.72,-3.673 -0.001,-2.036 -1.652,-3.685 -3.72,-3.685 z"
   id="path87"
   inkscape:connector-curvature="0" />
		</g>
		<g
   id="g89">
			<path
   d="m 720.978,195.642 c -0.939,0 -1.775,-0.473 -2.267,-1.022 v 0.864 h -1.758 v -11.541 l 1.758,-0.94 v 4.35 c 0.659,-0.604 1.383,-1.042 2.339,-1.042 1.935,0 3.449,1.386 3.449,4.823 0,3.068 -1.683,4.508 -3.521,4.508 z m -0.26,-7.706 c -0.818,0 -1.571,0.567 -2.026,1.155 v 3.782 c 0.38,0.529 1.227,1.14 2.101,1.14 1.283,0 1.933,-0.945 1.933,-2.823 -10e-4,-2.267 -0.689,-3.254 -2.008,-3.254 z"
   id="path91"
   inkscape:connector-curvature="0" />
			<path
   d="m 729.832,198.645 h -1.881 l 1.314,-3.346 -3.31,-8.783 h 1.961 l 1.459,4.357 c 0.25,0.809 0.681,2.12 0.762,2.613 0.169,-0.53 0.53,-1.784 0.827,-2.575 l 1.516,-4.396 h 1.84 l -4.488,12.13 z"
   id="path93"
   inkscape:connector-curvature="0" />
		</g>
	</g>
</g>
</svg>