<?xml version="1.0" encoding="UTF-8" standalone="no"?>
<!-- Created with Inkscape (http://www.inkscape.org/) -->

<svg
   xmlns:dc="http://purl.org/dc/elements/1.1/"
   xmlns:cc="http://creativecommons.org/ns#"
   xmlns:rdf="http://www.w3.org/1999/02/22-rdf-syntax-ns#"
   xmlns:svg="http://www.w3.org/2000/svg"
   xmlns="http://www.w3.org/2000/svg"
   xmlns:sodipodi="http://sodipodi.sourceforge.net/DTD/sodipodi-0.dtd"
   xmlns:inkscape="http://www.inkscape.org/namespaces/inkscape"
   width="20"
   height="20"
   id="svg2924"
   version="1.1"
   inkscape:version="0.47 r22583"
   sodipodi:docname="filledcheckbox-small.svg">
  <defs
     id="defs2926">
    <inkscape:perspective
       sodipodi:type="inkscape:persp3d"
       inkscape:vp_x="0 : 526.18109 : 1"
       inkscape:vp_y="0 : 1000 : 0"
       inkscape:vp_z="744.09448 : 526.18109 : 1"
       inkscape:persp3d-origin="372.04724 : 350.78739 : 1"
       id="perspective2932" />
    <inkscape:perspective
       id="perspective2919"
       inkscape:persp3d-origin="0.5 : 0.33333333 : 1"
       inkscape:vp_z="1 : 0.5 : 1"
       inkscape:vp_y="0 : 1000 : 0"
       inkscape:vp_x="0 : 0.5 : 1"
       sodipodi:type="inkscape:persp3d" />
    <inkscape:perspective
       id="perspective3040"
       inkscape:persp3d-origin="0.5 : 0.33333333 : 1"
       inkscape:vp_z="1 : 0.5 : 1"
       inkscape:vp_y="0 : 1000 : 0"
       inkscape:vp_x="0 : 0.5 : 1"
       sodipodi:type="inkscape:persp3d" />
  </defs>
  <sodipodi:namedview
     id="base"
     pagecolor="#ffffff"
     bordercolor="#666666"
     borderopacity="1.0"
     inkscape:pageopacity="0.0"
     inkscape:pageshadow="2"
     inkscape:zoom="11.2"
     inkscape:cx="18.281937"
     inkscape:cy="18.482143"
     inkscape:document-units="px"
     inkscape:current-layer="layer1"
     showgrid="false"
     inkscape:window-width="1656"
     inkscape:window-height="845"
     inkscape:window-x="8"
     inkscape:window-y="98"
     inkscape:window-maximized="0" />
  <metadata
     id="metadata2929">
    <rdf:RDF>
      <cc:Work
         rdf:about="">
        <dc:format>image/svg+xml</dc:format>
        <dc:type
           rdf:resource="http://purl.org/dc/dcmitype/StillImage" />
        <dc:title />
      </cc:Work>
    </rdf:RDF>
  </metadata>
  <g
     inkscape:label="Layer 1"
     inkscape:groupmode="layer"
     id="layer1"
     transform="translate(-190,-359.50504)">
    <rect
       style="fill:#ffffff;stroke:#241c1c"
       id="rect3675"
       width="5.8035765"
       height="5.8928695"
       x="197.14287"
       y="360.75504" />
    <path
       style="fill:#4d4d4d;stroke:#4d4d4d"
       id="path4011"
       d="m 5.4780881,3.8725371 c 0.4047704,0.5542654 0.7929722,1.1205878 1.1680812,1.6952982 0.2247914,0.3359012 0.4301664,0.6821188 0.5187573,1.0789733 0.058809,0.2171886 0.065699,0.4453463 0.132335,0.6602022 0.024932,0.037186 0.014957,0.1093785 0.052935,0.1397779 0.00938,0.00751 0.021072,-0.02393 0.017575,-0.022099 C 6.985149,7.625026 6.60641,7.8326925 6.2257294,8.0366938 6.2826095,7.9798681 6.328289,7.9173042 6.3821855,7.8574663 6.4490825,7.6958321 6.497571,7.5262821 6.5619378,7.3628068 6.5808734,7.3258102 6.596106,7.286671 6.6187446,7.251817 6.763104,7.0295635 6.9676521,6.8363276 7.1520451,6.6495815 7.4463413,6.3515295 7.5347498,6.2711973 7.8487044,5.970131 8.6784752,5.1789804 9.5649369,4.4515203 10.435994,3.707182 c 0.497169,-0.4227833 0.989627,-0.852825 1.539238,-1.2068171 0.69366,-0.4497187 1.428955,-0.8210056 2.165429,-1.1905398 -0.229549,0.1313314 0.57069,-0.2849876 0.325063,-0.1421614 -1.860668,1.0819351 -1.374944,0.7900575 -0.987907,0.559776 0.650093,-0.420761 0.837729,-0.690305 1.395847,-0.694501 0.111719,0.00175 0.223461,0.00163 0.335192,0.00228 0.01417,4.82e-5 0.02833,9.63e-5 0.0425,1.445e-4 0,0 -1.081848,0.785095 -1.081848,0.785095 l 0,0 c -0.01407,-1.079e-4 -0.02814,-2.159e-4 -0.04221,-3.238e-4 -0.110168,-5.303e-4 -0.220555,-0.00284 -0.330538,0.00471 -0.417879,0.046569 -1.441912,0.9688305 0.927677,-0.5783684 -0.52868,0.3200593 -1.055913,0.6454564 -1.622371,0.8933356 -0.158163,0.07698 -0.315753,0.1543778 -0.471942,0.2353196 -0.0589,0.030525 -0.23345,0.1259967 -0.176565,0.091856 C 12.888493,2.2059494 13.832687,1.6646925 13.21019,2.0220063 12.644528,2.3577367 12.151287,2.7949896 11.648477,3.2160228 10.778025,3.9602059 9.8877948,4.6823678 9.0576688,5.4724131 8.6733537,5.840047 8.7217636,5.7888819 8.3689392,6.143643 8.1887047,6.3248668 7.9967253,6.5103124 7.8355028,6.7098636 c -0.023988,0.029691 -0.04155,0.064043 -0.062324,0.096065 -0.074459,0.1613134 -0.1380718,0.3315843 -0.1710048,0.5062009 -0.00984,0.027845 -0.020019,0.06932 -0.043235,0.091586 -0.00861,0.00825 -0.023754,0.00726 -0.032106,0.015773 -0.028797,0.029342 -0.021768,0.084398 -0.068863,0.098322 C 6.8095795,7.8809973 6.3297865,8.6128708 6.1270518,7.9490212 6.0568248,7.7295573 6.0488363,7.4982673 5.9921902,7.2750854 5.9180366,6.8912065 5.7187082,6.5581239 5.506405,6.2336152 5.1381011,5.6595615 4.755768,5.092987 4.3356508,4.5553508 c 0,0 1.1424373,-0.6828137 1.1424373,-0.6828137 z"
       transform="translate(190,359.50504)" />
  </g>
</svg>
